<mxfile host="app.diagrams.net" modified="2021-12-18T13:42:40.594Z" agent="5.0 (X11)" etag="WXyANLB4ih1xS6l1xtuM" version="16.0.0" type="github">
  <diagram id="i-MBx5_v8haH91gUBkEL" name="Page-1">
    <mxGraphModel dx="782" dy="434" grid="1" gridSize="10" guides="1" tooltips="1" connect="1" arrows="1" fold="1" page="1" pageScale="1" pageWidth="827" pageHeight="1169" math="0" shadow="0">
      <root>
        <mxCell id="0" />
        <mxCell id="1" parent="0" />
        <mxCell id="h5tMYhccPphKTGKUEnCO-3" style="edgeStyle=orthogonalEdgeStyle;rounded=0;orthogonalLoop=1;jettySize=auto;html=1;entryX=0.5;entryY=0;entryDx=0;entryDy=0;" edge="1" parent="1" source="h5tMYhccPphKTGKUEnCO-1" target="h5tMYhccPphKTGKUEnCO-2">
          <mxGeometry relative="1" as="geometry" />
        </mxCell>
        <mxCell id="h5tMYhccPphKTGKUEnCO-1" value="Начало" style="ellipse;whiteSpace=wrap;html=1;" vertex="1" parent="1">
          <mxGeometry x="340" y="170" width="120" height="80" as="geometry" />
        </mxCell>
        <mxCell id="h5tMYhccPphKTGKUEnCO-5" style="edgeStyle=orthogonalEdgeStyle;rounded=0;orthogonalLoop=1;jettySize=auto;html=1;entryX=0.5;entryY=0;entryDx=0;entryDy=0;" edge="1" parent="1" source="h5tMYhccPphKTGKUEnCO-2" target="h5tMYhccPphKTGKUEnCO-4">
          <mxGeometry relative="1" as="geometry" />
        </mxCell>
        <mxCell id="h5tMYhccPphKTGKUEnCO-2" value="Введите числа" style="shape=parallelogram;perimeter=parallelogramPerimeter;whiteSpace=wrap;html=1;fixedSize=1;" vertex="1" parent="1">
          <mxGeometry x="340" y="320" width="120" height="60" as="geometry" />
        </mxCell>
        <mxCell id="h5tMYhccPphKTGKUEnCO-7" style="edgeStyle=orthogonalEdgeStyle;rounded=0;orthogonalLoop=1;jettySize=auto;html=1;entryX=0.5;entryY=0;entryDx=0;entryDy=0;" edge="1" parent="1" source="h5tMYhccPphKTGKUEnCO-4" target="h5tMYhccPphKTGKUEnCO-6">
          <mxGeometry relative="1" as="geometry" />
        </mxCell>
        <mxCell id="h5tMYhccPphKTGKUEnCO-16" style="edgeStyle=orthogonalEdgeStyle;rounded=0;orthogonalLoop=1;jettySize=auto;html=1;entryX=0;entryY=0.5;entryDx=0;entryDy=0;" edge="1" parent="1" source="h5tMYhccPphKTGKUEnCO-4" target="h5tMYhccPphKTGKUEnCO-14">
          <mxGeometry relative="1" as="geometry" />
        </mxCell>
        <mxCell id="h5tMYhccPphKTGKUEnCO-4" value="Логическая побитовая операция И" style="rounded=0;whiteSpace=wrap;html=1;" vertex="1" parent="1">
          <mxGeometry x="340" y="420" width="120" height="60" as="geometry" />
        </mxCell>
        <mxCell id="h5tMYhccPphKTGKUEnCO-9" style="edgeStyle=orthogonalEdgeStyle;rounded=0;orthogonalLoop=1;jettySize=auto;html=1;entryX=0.5;entryY=0;entryDx=0;entryDy=0;" edge="1" parent="1" source="h5tMYhccPphKTGKUEnCO-6" target="h5tMYhccPphKTGKUEnCO-8">
          <mxGeometry relative="1" as="geometry" />
        </mxCell>
        <mxCell id="h5tMYhccPphKTGKUEnCO-17" style="edgeStyle=orthogonalEdgeStyle;rounded=0;orthogonalLoop=1;jettySize=auto;html=1;" edge="1" parent="1" source="h5tMYhccPphKTGKUEnCO-6" target="h5tMYhccPphKTGKUEnCO-15">
          <mxGeometry relative="1" as="geometry" />
        </mxCell>
        <mxCell id="h5tMYhccPphKTGKUEnCO-6" value="Логическая побитовая операция ИЛИ" style="rounded=0;whiteSpace=wrap;html=1;" vertex="1" parent="1">
          <mxGeometry x="340" y="520" width="120" height="60" as="geometry" />
        </mxCell>
        <mxCell id="h5tMYhccPphKTGKUEnCO-11" style="edgeStyle=orthogonalEdgeStyle;rounded=0;orthogonalLoop=1;jettySize=auto;html=1;entryX=0.5;entryY=0;entryDx=0;entryDy=0;" edge="1" parent="1" source="h5tMYhccPphKTGKUEnCO-8" target="h5tMYhccPphKTGKUEnCO-10">
          <mxGeometry relative="1" as="geometry" />
        </mxCell>
        <mxCell id="h5tMYhccPphKTGKUEnCO-19" style="edgeStyle=orthogonalEdgeStyle;rounded=0;orthogonalLoop=1;jettySize=auto;html=1;entryX=0;entryY=0.5;entryDx=0;entryDy=0;" edge="1" parent="1" source="h5tMYhccPphKTGKUEnCO-8" target="h5tMYhccPphKTGKUEnCO-18">
          <mxGeometry relative="1" as="geometry" />
        </mxCell>
        <mxCell id="h5tMYhccPphKTGKUEnCO-8" value="Логическая побитовая операция XOR" style="rounded=0;whiteSpace=wrap;html=1;" vertex="1" parent="1">
          <mxGeometry x="340" y="620" width="120" height="60" as="geometry" />
        </mxCell>
        <mxCell id="h5tMYhccPphKTGKUEnCO-13" style="edgeStyle=orthogonalEdgeStyle;rounded=0;orthogonalLoop=1;jettySize=auto;html=1;entryX=0.5;entryY=0;entryDx=0;entryDy=0;" edge="1" parent="1" source="h5tMYhccPphKTGKUEnCO-10" target="h5tMYhccPphKTGKUEnCO-12">
          <mxGeometry relative="1" as="geometry" />
        </mxCell>
        <mxCell id="h5tMYhccPphKTGKUEnCO-21" style="edgeStyle=orthogonalEdgeStyle;rounded=0;orthogonalLoop=1;jettySize=auto;html=1;entryX=0;entryY=0.5;entryDx=0;entryDy=0;" edge="1" parent="1" source="h5tMYhccPphKTGKUEnCO-10" target="h5tMYhccPphKTGKUEnCO-20">
          <mxGeometry relative="1" as="geometry" />
        </mxCell>
        <mxCell id="h5tMYhccPphKTGKUEnCO-10" value="Побитовый сдвиг вправо на 2 знака" style="rounded=0;whiteSpace=wrap;html=1;" vertex="1" parent="1">
          <mxGeometry x="340" y="720" width="120" height="60" as="geometry" />
        </mxCell>
        <mxCell id="h5tMYhccPphKTGKUEnCO-23" style="edgeStyle=orthogonalEdgeStyle;rounded=0;orthogonalLoop=1;jettySize=auto;html=1;entryX=0;entryY=0.5;entryDx=0;entryDy=0;" edge="1" parent="1" source="h5tMYhccPphKTGKUEnCO-12" target="h5tMYhccPphKTGKUEnCO-22">
          <mxGeometry relative="1" as="geometry" />
        </mxCell>
        <mxCell id="h5tMYhccPphKTGKUEnCO-25" style="edgeStyle=orthogonalEdgeStyle;rounded=0;orthogonalLoop=1;jettySize=auto;html=1;entryX=0.5;entryY=0;entryDx=0;entryDy=0;" edge="1" parent="1" source="h5tMYhccPphKTGKUEnCO-12" target="h5tMYhccPphKTGKUEnCO-24">
          <mxGeometry relative="1" as="geometry" />
        </mxCell>
        <mxCell id="h5tMYhccPphKTGKUEnCO-12" value="Побитовый сдвиг влево на 2 знака" style="rounded=0;whiteSpace=wrap;html=1;" vertex="1" parent="1">
          <mxGeometry x="340" y="820" width="120" height="60" as="geometry" />
        </mxCell>
        <mxCell id="h5tMYhccPphKTGKUEnCO-14" value="Вывод" style="shape=parallelogram;perimeter=parallelogramPerimeter;whiteSpace=wrap;html=1;fixedSize=1;" vertex="1" parent="1">
          <mxGeometry x="560" y="420" width="120" height="60" as="geometry" />
        </mxCell>
        <mxCell id="h5tMYhccPphKTGKUEnCO-15" value="Вывод" style="shape=parallelogram;perimeter=parallelogramPerimeter;whiteSpace=wrap;html=1;fixedSize=1;" vertex="1" parent="1">
          <mxGeometry x="560" y="520" width="120" height="60" as="geometry" />
        </mxCell>
        <mxCell id="h5tMYhccPphKTGKUEnCO-18" value="Вывод" style="shape=parallelogram;perimeter=parallelogramPerimeter;whiteSpace=wrap;html=1;fixedSize=1;" vertex="1" parent="1">
          <mxGeometry x="560" y="620" width="120" height="60" as="geometry" />
        </mxCell>
        <mxCell id="h5tMYhccPphKTGKUEnCO-20" value="Вывод" style="shape=parallelogram;perimeter=parallelogramPerimeter;whiteSpace=wrap;html=1;fixedSize=1;" vertex="1" parent="1">
          <mxGeometry x="560" y="720" width="120" height="60" as="geometry" />
        </mxCell>
        <mxCell id="h5tMYhccPphKTGKUEnCO-22" value="Вывод" style="shape=parallelogram;perimeter=parallelogramPerimeter;whiteSpace=wrap;html=1;fixedSize=1;" vertex="1" parent="1">
          <mxGeometry x="560" y="820" width="120" height="60" as="geometry" />
        </mxCell>
        <mxCell id="h5tMYhccPphKTGKUEnCO-24" value="Конец" style="ellipse;whiteSpace=wrap;html=1;" vertex="1" parent="1">
          <mxGeometry x="340" y="930" width="120" height="80" as="geometry" />
        </mxCell>
      </root>
    </mxGraphModel>
  </diagram>
</mxfile>
